<svg width="24" height="24" viewBox="0 0 24 24" fill="none" xmlns="http://www.w3.org/2000/svg">
    <g clip-path="url(#clip0)">
        <path d="M15.8567 16.7426C15.8593 16.4128 15.7368 16.0943 15.5138 15.8513L11.8695 11.9995L15.5138 8.14781C15.7371 7.90551 15.8611 7.58807 15.8611 7.25858C15.8611 6.92909 15.7371 6.61166 15.5138 6.36936C15.407 6.25284 15.2772 6.1598 15.1325 6.09615C14.9878 6.0325 14.8315 5.99963 14.6735 5.99963C14.5154 5.99963 14.3591 6.0325 14.2144 6.09615C14.0697 6.1598 13.9399 6.25284 13.8331 6.36936L9.34883 11.1107C9.12461 11.3521 8.99998 11.6693 8.99998 11.9987C8.99998 12.3281 9.12461 12.6453 9.34883 12.8866L13.8288 17.6297C13.9356 17.7462 14.0654 17.8393 14.2101 17.9029C14.3548 17.9666 14.5111 17.9994 14.6692 17.9994C14.8272 17.9994 14.9835 17.9666 15.1282 17.9029C15.2729 17.8393 15.4027 17.7462 15.5095 17.6297C15.7338 17.3889 15.8579 17.0717 15.8567 16.7426Z" fill="white" fill-opacity="0.87"/>
    </g>
    <defs>
        <clipPath id="clip0">
            <rect width="6.86094" height="12" fill="white" transform="translate(9 6)"/>
        </clipPath>
    </defs>
</svg>
