<svg width="20" height="20" viewBox="0 0 20 20" fill="none" xmlns="http://www.w3.org/2000/svg">
    <g clip-path="url(#clip0)">
        <path
            d="M12.1239 6.20603L10.0155 8.31269L7.90719 6.20436C7.79611 6.08868 7.66306 5.99633 7.51583 5.93274C7.3686 5.86915 7.21016 5.83558 7.0498 5.83401C6.88943 5.83244 6.73036 5.8629 6.58192 5.9236C6.43347 5.98431 6.29864 6.07403 6.18532 6.18752C6.072 6.301 5.98247 6.43597 5.92199 6.5845C5.86151 6.73303 5.83128 6.89214 5.83308 7.05251C5.83489 7.21287 5.86869 7.37127 5.9325 7.5184C5.99631 7.66554 6.08885 7.79845 6.20469 7.90936L8.31219 10.0177L6.20636 12.1235C5.9796 12.3503 5.8522 12.6578 5.8522 12.9785C5.8522 13.2992 5.9796 13.6068 6.20636 13.8335C6.43312 14.0603 6.74067 14.1877 7.06136 14.1877C7.38204 14.1877 7.6896 14.0603 7.91636 13.8335L10.0155 11.7202L12.1222 13.8277C12.2334 13.9432 12.3664 14.0353 12.5136 14.0987C12.6608 14.1622 12.8192 14.1956 12.9794 14.1971C13.1397 14.1986 13.2986 14.1682 13.447 14.1076C13.5954 14.0469 13.7302 13.9573 13.8435 13.844C13.9568 13.7307 14.0464 13.5959 14.1071 13.4475C14.1677 13.2992 14.1981 13.1402 14.1966 12.9799C14.1951 12.8197 14.1616 12.6613 14.0982 12.5141C14.0348 12.3669 13.9426 12.2339 13.8272 12.1227L11.7239 10.0185L13.833 7.91269C13.9451 7.80047 14.0339 7.66727 14.0945 7.5207C14.1551 7.37414 14.1862 7.21707 14.1861 7.05848C14.186 6.89988 14.1547 6.74286 14.0939 6.59638C14.0331 6.44991 13.944 6.31684 13.8318 6.20478C13.7195 6.09272 13.5863 6.00386 13.4398 5.94327C13.2932 5.88269 13.1362 5.85156 12.9776 5.85168C12.819 5.8518 12.6619 5.88315 12.5155 5.94395C12.369 6.00475 12.2359 6.0938 12.1239 6.20603Z"
            fill="white"  />
    </g>
    <defs>
        <clipPath id="clip0">
            <rect width="8.36333" height="8.36333" fill="white"
                transform="translate(5.83301 5.83344)" />
        </clipPath>
    </defs>
</svg>
