<svg width="16" height="16" viewBox="0 0 16 16" fill="none" xmlns="http://www.w3.org/2000/svg">
    <path d="M4.27992 11.8199C2.79325 10.8466 1.83325 9.3799 1.83325 8.09323C1.83325 5.90656 4.59325 3.22656 7.99992 3.22656C9.39325 3.22656 10.6866 3.67323 11.7266 4.36656" stroke="white" stroke-width="1.5" stroke-linecap="round" stroke-linejoin="round"/>
    <path d="M13.233 5.74011C13.827 6.49345 14.173 7.32678 14.173 8.09345C14.173 10.2801 11.4063 12.9601 7.99967 12.9601C7.393 12.9601 6.80034 12.8734 6.24634 12.7201" stroke="white" stroke-width="1.5" stroke-linecap="round" stroke-linejoin="round"/>
    <path d="M6.51048 9.57799C6.11381 9.18533 5.89181 8.65 5.89381 8.092C5.89115 6.92866 6.83248 5.98333 7.99648 5.98133C8.55648 5.98 9.09381 6.202 9.48981 6.598" stroke="white" stroke-width="1.5" stroke-linecap="round" stroke-linejoin="round"/>
    <path d="M10.0729 8.46606C9.91692 9.3274 9.24292 10.0027 8.38159 10.1607" stroke="white" stroke-width="1.5" stroke-linecap="round" stroke-linejoin="round"/>
    <path d="M13.2611 2.83325L2.74512 13.3493" stroke="white" stroke-width="1.5" stroke-linecap="round" stroke-linejoin="round"/>
</svg>
