<svg width="10" height="11" viewBox="0 0 10 11" fill="none" xmlns="http://www.w3.org/2000/svg">
    <path d="M9.99229 4.33767C10.0423 4.07564 9.84241 3.7612 9.5926 3.7612L6.7448 3.34196L5.4458 0.616865C5.39584 0.512053 5.34588 0.459648 5.24595 0.407242C4.99615 0.250025 4.69638 0.354836 4.54649 0.616865L3.29746 3.34196L0.449653 3.7612C0.299769 3.7612 0.199846 3.81361 0.149884 3.91842C-0.0499615 4.12804 -0.0499615 4.44248 0.149884 4.6521L2.1983 6.74833L1.69869 9.73545C1.69869 9.84026 1.69869 9.94507 1.74865 10.0499C1.89854 10.3119 2.1983 10.4167 2.44811 10.2595L4.99615 8.84455L7.54418 10.2595C7.59414 10.3119 7.69407 10.3119 7.79399 10.3119C7.84395 10.3119 7.84395 10.3119 7.89391 10.3119C8.14372 10.2595 8.34356 9.99748 8.2936 9.68304L7.79399 6.69592L9.84241 4.59969C9.94233 4.54729 9.99229 4.44248 9.99229 4.33767Z" fill="#FEC900"/>
</svg>
